<svg xmlns="http://www.w3.org/2000/svg" viewBox="0 0 1320 250" role="img" aria-labelledby="title desc">
<title id="title">项目路线图</title><desc id="desc">项目从基础规划开始，依次进入首个纵向切片、个人知识工作流、内容扩展、实验与工具以及 AI 辅助工作流。</desc>
<defs><marker id="a" viewBox="0 0 10 10" refX="9" refY="5" markerWidth="7" markerHeight="7" orient="auto"><path d="M0 0 10 5 0 10z" fill="#7890aa"/></marker><style>.bg{fill:#fff}.n{fill:#e4f2ff;stroke:#b9d6ee;stroke-width:1.5}.c{fill:#d8ecff;stroke:#75b4e2;stroke-width:2}.e{fill:none;stroke:#7890aa;stroke-width:1.8;marker-end:url(#a)}.t{font:600 16px system-ui,"Microsoft YaHei",sans-serif;fill:#075b9c;text-anchor:middle;dominant-baseline:middle}.s{font:500 13px system-ui,"Microsoft YaHei",sans-serif;fill:#334e68;text-anchor:middle;dominant-baseline:middle}@media(prefers-color-scheme:dark){.bg{fill:#111827}.n{fill:#153b5c;stroke:#39749e}.c{fill:#17476c;stroke:#59a1d1}.t{fill:#a8d8ff}.s{fill:#e2e8f0}.e{stroke:#91a4ba}}</style></defs>
<rect class="bg" width="1320" height="250"/>
<g><rect class="c" x="25" y="85" width="180" height="78" rx="18"/><text class="t" x="115" y="113">Phase 0</text><text class="s" x="115" y="140">Foundation</text><rect class="n" x="240" y="85" width="180" height="78" rx="18"/><text class="t" x="330" y="113">Phase 1</text><text class="s" x="330" y="140">First Vertical Slice</text><rect class="n" x="455" y="85" width="180" height="78" rx="18"/><text class="t" x="545" y="113">Phase 2</text><text class="s" x="545" y="140">Personal Knowledge Workflow</text><rect class="n" x="670" y="85" width="180" height="78" rx="18"/><text class="t" x="760" y="113">Phase 3</text><text class="s" x="760" y="140">Content Expansion</text><rect class="n" x="885" y="85" width="180" height="78" rx="18"/><text class="t" x="975" y="113">Phase 4</text><text class="s" x="975" y="140">Labs and Tools</text><rect class="n" x="1100" y="85" width="195" height="78" rx="18"/><text class="t" x="1197.5" y="113">Phase 5</text><text class="s" x="1197.5" y="140">AI-assisted Workflow</text></g>
<path class="e" d="M205 124H240"/><path class="e" d="M420 124H455"/><path class="e" d="M635 124H670"/><path class="e" d="M850 124H885"/><path class="e" d="M1065 124H1100"/>
</svg>
