<svg xmlns="http://www.w3.org/2000/svg" viewBox="0 0 1120 680" role="img" aria-labelledby="title desc">
<title id="title">Embedded Learning Lab 第一版网站地图</title><desc id="desc">首页连接学习路线、知识库、课程、面试题库、关于和全站搜索，各内容入口再连接对应详情或学习页面。</desc>
<defs><marker id="a" viewBox="0 0 10 10" refX="9" refY="5" markerWidth="7" markerHeight="7" orient="auto"><path d="M0 0 10 5 0 10z" fill="#7890aa"/></marker><style>.bg{fill:#fff}.area{fill:#f7fafc;stroke:#d9e2ec;stroke-width:1.5}.n{fill:#e4f2ff;stroke:#b9d6ee;stroke-width:1.5}.d{fill:#fff;stroke:#cad6e2;stroke-width:1.5}.e{fill:none;stroke:#7890aa;stroke-width:1.8;marker-end:url(#a)}.t{font:600 18px system-ui,"Microsoft YaHei",sans-serif;fill:#075b9c;text-anchor:middle;dominant-baseline:middle}.s{font:500 16px system-ui,"Microsoft YaHei",sans-serif;fill:#334e68;text-anchor:middle;dominant-baseline:middle}.note{font:500 14px system-ui,"Microsoft YaHei",sans-serif;fill:#627d98}@media(prefers-color-scheme:dark){.bg{fill:#111827}.area{fill:#172033;stroke:#334155}.n{fill:#153b5c;stroke:#39749e}.d{fill:#1f2937;stroke:#475569}.t{fill:#a8d8ff}.s{fill:#e2e8f0}.note{fill:#a8b5c7}.e{stroke:#91a4ba}}</style></defs>
<rect class="bg" width="1120" height="680"/><rect class="area" x="210" y="25" width="880" height="600" rx="24"/><rect class="n" x="30" y="280" width="145" height="74" rx="18"/><text class="t" x="102.5" y="317">首页</text>
<g><rect class="n" x="270" y="50" width="180" height="66" rx="17"/><text class="t" x="360" y="83">学习路线</text><rect class="n" x="270" y="145" width="180" height="66" rx="17"/><text class="t" x="360" y="178">知识库</text><rect class="n" x="270" y="240" width="180" height="66" rx="17"/><text class="t" x="360" y="273">课程</text><rect class="n" x="270" y="335" width="180" height="66" rx="17"/><text class="t" x="360" y="368">面试题库</text><rect class="n" x="270" y="430" width="180" height="66" rx="17"/><text class="t" x="360" y="463">关于</text><rect class="n" x="270" y="525" width="180" height="66" rx="17"/><text class="t" x="360" y="558">全站搜索</text></g>
<path class="e" d="M175 317H220V83H270"/><path class="e" d="M175 317H232V178H270"/><path class="e" d="M175 317H244V273H270"/><path class="e" d="M175 317H244V368H270"/><path class="e" d="M175 317H232V463H270"/><path class="e" d="M175 317H220V558H270"/>
<g><rect class="d" x="590" y="50" width="190" height="66" rx="17"/><text class="s" x="685" y="83">路线详情</text><path class="e" d="M450 83H590"/><rect class="d" x="590" y="145" width="190" height="66" rx="17"/><text class="s" x="685" y="178">Knowledge 详情</text><path class="e" d="M450 178H590"/><rect class="d" x="590" y="240" width="190" height="66" rx="17"/><text class="s" x="685" y="273">课程介绍</text><path class="e" d="M450 273H590"/><rect class="d" x="870" y="240" width="190" height="66" rx="17"/><text class="s" x="965" y="273">课程学习界面</text><path class="e" d="M780 273H870"/><rect class="d" x="590" y="335" width="190" height="66" rx="17"/><text class="s" x="685" y="368">题目详情</text><path class="e" d="M450 368H590"/><rect class="d" x="590" y="525" width="190" height="66" rx="17"/><text class="s" x="685" y="558">搜索结果</text><path class="e" d="M450 558H590"/></g>
<text class="note" x="270" y="655">关联内容在详情页呈现；没有真实内容的长期类型不建立空入口。</text>
</svg>
